<svg id="visual" viewBox="0 0 1920 1080" width="1920" height="1080" xmlns="http://www.w3.org/2000/svg" xmlns:xlink="http://www.w3.org/1999/xlink" version="1.1"><rect x="0" y="0" width="1920" height="1080" fill="#fafafa"></rect><path d="M0 655L160 583.5C320 512 640 369 960 352.5C1280 336 1600 446 1760 501L1920 556L1920 1081L1760 1081C1600 1081 1280 1081 960 1081C640 1081 320 1081 160 1081L0 1081Z" fill="#adc0ff"></path><path d="M0 882L160 876.2C320 870.3 640 858.7 960 828.5C1280 798.3 1600 749.7 1760 725.3L1920 701L1920 1081L1760 1081C1600 1081 1280 1081 960 1081C640 1081 320 1081 160 1081L0 1081Z" fill="#b7c7ff"></path><path d="M0 598L160 630.2C320 662.3 640 726.7 960 699C1280 671.3 1600 551.7 1760 491.8L1920 432L1920 1081L1760 1081C1600 1081 1280 1081 960 1081C640 1081 320 1081 160 1081L0 1081Z" fill="#c1cefe"></path><path d="M0 563L160 598.3C320 633.7 640 704.3 960 736C1280 767.7 1600 760.3 1760 756.7L1920 753L1920 1081L1760 1081C1600 1081 1280 1081 960 1081C640 1081 320 1081 160 1081L0 1081Z" fill="#cbd6fe"></path><path d="M0 867L160 860.7C320 854.3 640 841.7 960 833.2C1280 824.7 1600 820.3 1760 818.2L1920 816L1920 1081L1760 1081C1600 1081 1280 1081 960 1081C640 1081 320 1081 160 1081L0 1081Z" fill="#d5ddfd"></path><path d="M0 754L160 736.8C320 719.7 640 685.3 960 714.8C1280 744.3 1600 837.7 1760 884.3L1920 931L1920 1081L1760 1081C1600 1081 1280 1081 960 1081C640 1081 320 1081 160 1081L0 1081Z" fill="#dee4fc"></path><path d="M0 939L160 937.7C320 936.3 640 933.7 960 927.8C1280 922 1600 913 1760 908.5L1920 904L1920 1081L1760 1081C1600 1081 1280 1081 960 1081C640 1081 320 1081 160 1081L0 1081Z" fill="#e8ebfc"></path><path d="M0 826L160 851.2C320 876.3 640 926.7 960 953.5C1280 980.3 1600 983.7 1760 985.3L1920 987L1920 1081L1760 1081C1600 1081 1280 1081 960 1081C640 1081 320 1081 160 1081L0 1081Z" fill="#f1f3fb"></path><path d="M0 907L160 917.7C320 928.3 640 949.7 960 966.7C1280 983.7 1600 996.3 1760 1002.7L1920 1009L1920 1081L1760 1081C1600 1081 1280 1081 960 1081C640 1081 320 1081 160 1081L0 1081Z" fill="#fafafa"></path></svg>