<svg id="visual" viewBox="0 0 1920 1080" width="1920" height="1080" xmlns="http://www.w3.org/2000/svg" xmlns:xlink="http://www.w3.org/1999/xlink" version="1.1"><rect x="0" y="0" width="1920" height="1080" fill="#fafafa"></rect><path d="M0 715L160 723.3C320 731.7 640 748.3 960 682.2C1280 616 1600 467 1760 392.5L1920 318L1920 0L1760 0C1600 0 1280 0 960 0C640 0 320 0 160 0L0 0Z" fill="#adc0ff"></path><path d="M0 380L160 373C320 366 640 352 960 397.7C1280 443.3 1600 548.7 1760 601.3L1920 654L1920 0L1760 0C1600 0 1280 0 960 0C640 0 320 0 160 0L0 0Z" fill="#b7c7ff"></path><path d="M0 473L160 453.5C320 434 640 395 960 348.7C1280 302.3 1600 248.7 1760 221.8L1920 195L1920 0L1760 0C1600 0 1280 0 960 0C640 0 320 0 160 0L0 0Z" fill="#c1cefe"></path><path d="M0 330L160 305.8C320 281.7 640 233.3 960 258.3C1280 283.3 1600 381.7 1760 430.8L1920 480L1920 0L1760 0C1600 0 1280 0 960 0C640 0 320 0 160 0L0 0Z" fill="#cbd6fe"></path><path d="M0 207L160 212.3C320 217.7 640 228.3 960 217.8C1280 207.3 1600 175.7 1760 159.8L1920 144L1920 0L1760 0C1600 0 1280 0 960 0C640 0 320 0 160 0L0 0Z" fill="#d5ddfd"></path><path d="M0 297L160 299.5C320 302 640 307 960 309.2C1280 311.3 1600 310.7 1760 310.3L1920 310L1920 0L1760 0C1600 0 1280 0 960 0C640 0 320 0 160 0L0 0Z" fill="#dee4fc"></path><path d="M0 227L160 243.3C320 259.7 640 292.3 960 305.7C1280 319 1600 313 1760 310L1920 307L1920 0L1760 0C1600 0 1280 0 960 0C640 0 320 0 160 0L0 0Z" fill="#e8ebfc"></path><path d="M0 83L160 100C320 117 640 151 960 175.7C1280 200.3 1600 215.7 1760 223.3L1920 231L1920 0L1760 0C1600 0 1280 0 960 0C640 0 320 0 160 0L0 0Z" fill="#f1f3fb"></path><path d="M0 164L160 148.5C320 133 640 102 960 89.5C1280 77 1600 83 1760 86L1920 89L1920 0L1760 0C1600 0 1280 0 960 0C640 0 320 0 160 0L0 0Z" fill="#fafafa"></path></svg>